<svg width="162" height="41" viewBox="0 0 162 41" fill="none" xmlns="http://www.w3.org/2000/svg">
<path d="M6.324 19.772V15.488H20.828V19.772H6.324ZM17.132 3L26.82 24H21.192L12.876 5.212H14.5L6.212 24H0.556L10.272 3H17.132ZM28.9581 3H34.2501V24H28.9581V3ZM56.4486 21.648H54.1526L62.4966 3H68.0686L58.2126 24H52.2486L42.3646 3H48.0486L56.4486 21.648ZM70.1651 3H75.4571V24H70.1651V3ZM89.792 3C92.256 3 94.412 3.43867 96.26 4.316C98.108 5.19333 99.5453 6.416 100.572 7.984C101.617 9.552 102.14 11.3907 102.14 13.5C102.14 15.5907 101.617 17.4293 100.572 19.016C99.5453 20.584 98.108 21.8067 96.26 22.684C94.412 23.5613 92.256 24 89.792 24H79.544V3H89.792ZM84.808 21.844L82.232 19.324H90.184C91.528 19.324 92.6947 19.0813 93.684 18.596C94.6733 18.1107 95.4387 17.4387 95.98 16.58C96.5213 15.7027 96.792 14.676 96.792 13.5C96.792 12.3053 96.5213 11.2787 95.98 10.42C95.4387 9.56133 94.6733 8.88933 93.684 8.404C92.6947 7.91867 91.528 7.676 90.184 7.676H82.232L84.808 5.156V21.844ZM122.696 11.54V15.46H107.492V11.54H122.696ZM111.076 13.5L109.676 22.18L107.464 19.66H123.592V24H104.384L106.008 13.5L104.384 3H123.452V7.34H107.464L109.676 4.82L111.076 13.5ZM138.135 24.448C135.671 24.448 133.506 23.9907 131.639 23.076C129.791 22.1613 128.354 20.8827 127.327 19.24C126.301 17.5973 125.787 15.684 125.787 13.5C125.787 11.316 126.301 9.40267 127.327 7.76C128.354 6.11733 129.791 4.83867 131.639 3.924C133.506 3.00933 135.671 2.552 138.135 2.552C140.599 2.552 142.755 3.00933 144.603 3.924C146.47 4.83867 147.917 6.11733 148.943 7.76C149.989 9.40267 150.511 11.316 150.511 13.5C150.511 15.684 149.989 17.5973 148.943 19.24C147.917 20.8827 146.47 22.1613 144.603 23.076C142.755 23.9907 140.599 24.448 138.135 24.448ZM138.135 19.716C139.591 19.716 140.842 19.4733 141.887 18.988C142.933 18.484 143.735 17.7653 144.295 16.832C144.874 15.8987 145.163 14.788 145.163 13.5C145.163 12.212 144.874 11.1013 144.295 10.168C143.735 9.23467 142.933 8.52533 141.887 8.04C140.842 7.536 139.591 7.284 138.135 7.284C136.698 7.284 135.457 7.536 134.411 8.04C133.366 8.52533 132.554 9.23467 131.975 10.168C131.397 11.1013 131.107 12.212 131.107 13.5C131.107 14.788 131.397 15.8987 131.975 16.832C132.554 17.7653 133.366 18.484 134.411 18.988C135.457 19.4733 136.698 19.716 138.135 19.716Z" fill="white"/>
<path d="M2.48047 36.8574C1.64062 36.0176 1.2207 34.998 1.2207 33.7988C1.2207 32.5996 1.64062 31.5801 2.48047 30.7402C3.32031 29.9004 4.33984 29.4805 5.53906 29.4805C5.96484 29.4805 6.37305 29.541 6.76367 29.6621C7.1543 29.7793 7.47656 29.9219 7.73047 30.0898C7.98828 30.2578 8.21289 30.4277 8.4043 30.5996C8.59961 30.7715 8.74023 30.918 8.82617 31.0391L8.96094 31.2207L8.35742 31.7598C8.33398 31.7207 8.29883 31.6699 8.25195 31.6074C8.20508 31.541 8.0957 31.4258 7.92383 31.2617C7.75195 31.0977 7.56445 30.9531 7.36133 30.8281C7.16211 30.6992 6.89844 30.582 6.57031 30.4766C6.24219 30.3711 5.89844 30.3184 5.53906 30.3184C4.57812 30.3184 3.76758 30.6523 3.10742 31.3203C2.44727 31.9883 2.11719 32.8145 2.11719 33.7988C2.11719 34.7832 2.44727 35.6094 3.10742 36.2773C3.76758 36.9453 4.57812 37.2793 5.53906 37.2793C5.89844 37.2793 6.24219 37.2305 6.57031 37.1328C6.89844 37.0312 7.16992 36.9102 7.38477 36.7695C7.60352 36.6289 7.79492 36.4902 7.95898 36.3535C8.12305 36.2129 8.24023 36.0898 8.31055 35.9844L8.42188 35.8379L9.01953 36.3828C8.98828 36.4297 8.93945 36.4922 8.87305 36.5703C8.81055 36.6445 8.66797 36.7812 8.44531 36.9805C8.22656 37.1797 7.99414 37.3574 7.74805 37.5137C7.50195 37.6699 7.17773 37.8105 6.77539 37.9355C6.37695 38.0566 5.96484 38.1172 5.53906 38.1172C4.33984 38.1172 3.32031 37.6973 2.48047 36.8574ZM14.7793 32.2402H15.5V38H14.6562V33.6816L11.1758 38H10.4609V32.2402H11.2988V36.5586L14.7793 32.2402ZM17.8496 37.2441C17.2832 36.6582 17 35.9492 17 35.1172C17 34.2852 17.2832 33.5781 17.8496 32.9961C18.4199 32.4102 19.0957 32.1172 19.877 32.1172C20.3262 32.1172 20.7441 32.2148 21.1309 32.4102C21.5215 32.6016 21.8008 32.793 21.9688 32.9844L22.2207 33.2598L21.6172 33.8574C21.6016 33.834 21.5781 33.8008 21.5469 33.7578C21.5156 33.7148 21.4453 33.6367 21.3359 33.5234C21.2305 33.4102 21.1152 33.3125 20.9902 33.2305C20.8652 33.1445 20.7031 33.0684 20.5039 33.002C20.3047 32.9355 20.0957 32.9023 19.877 32.9023C19.3262 32.9023 18.8477 33.1172 18.4414 33.5469C18.0391 33.9727 17.8379 34.498 17.8379 35.123C17.8379 35.7441 18.0391 36.2695 18.4414 36.6992C18.8477 37.125 19.3262 37.3379 19.877 37.3379C20.2129 37.3379 20.5312 37.2578 20.832 37.0977C21.1328 36.9375 21.3516 36.7773 21.4883 36.6172L21.6816 36.3828L22.2793 36.9219C22.2559 36.9531 22.2188 36.998 22.168 37.0566C22.1211 37.1113 22.0195 37.207 21.8633 37.3438C21.707 37.4766 21.543 37.5957 21.3711 37.7012C21.1992 37.8027 20.9766 37.8984 20.7031 37.9883C20.4336 38.0742 20.1582 38.1172 19.877 38.1172C19.0918 38.1172 18.416 37.8262 17.8496 37.2441ZM22.877 33.0195V32.2402H27.793V33.0195H25.7539V38H24.916V33.0195H22.877ZM34.0977 35.4336L29.416 35.4219C29.4473 35.9414 29.6602 36.3906 30.0547 36.7695C30.4531 37.1484 30.9199 37.3379 31.4551 37.3379C31.8145 37.3379 32.1484 37.2578 32.457 37.0977C32.7656 36.9375 32.9844 36.7773 33.1133 36.6172L33.3184 36.3828L33.8574 36.9219C33.834 36.9531 33.7988 36.998 33.752 37.0566C33.709 37.1113 33.6113 37.207 33.459 37.3438C33.3105 37.4766 33.1484 37.5957 32.9727 37.7012C32.8008 37.8027 32.5762 37.8984 32.2988 37.9883C32.0254 38.0742 31.7441 38.1172 31.4551 38.1172C30.6699 38.1172 29.9941 37.8262 29.4277 37.2441C28.8613 36.6582 28.5781 35.9492 28.5781 35.1172C28.5781 34.2852 28.8574 33.5781 29.416 32.9961C29.9785 32.4102 30.6387 32.1172 31.3965 32.1172C32.1816 32.1172 32.8379 32.3906 33.3652 32.9375C33.8926 33.4805 34.1562 34.168 34.1562 35L34.0977 35.4336ZM32.6855 33.4121C32.3301 33.0723 31.9004 32.9023 31.3965 32.9023C30.8926 32.9023 30.4531 33.0801 30.0781 33.4355C29.7031 33.791 29.4824 34.2129 29.416 34.7012H33.3184C33.2559 34.1816 33.0449 33.752 32.6855 33.4121ZM40.6953 33.7402L38.5918 36.3828L36.4941 33.7402V38H35.6562V32.2402H36.3125L38.5918 35.1172L40.8711 32.2402H41.5332V38H40.6953V33.7402ZM49.7598 32.2402V38H48.916V32.2402H49.7598ZM44.2988 37.2207H45.752C46.127 37.2207 46.4277 37.1152 46.6543 36.9043C46.8848 36.6895 47 36.4141 47 36.0781C47 35.7422 46.8848 35.4688 46.6543 35.2578C46.4277 35.0469 46.123 34.9414 45.7402 34.9414H44.2988V37.2207ZM47.2754 34.6895C47.6504 35.041 47.8379 35.5059 47.8379 36.084C47.8379 36.6582 47.6523 37.1211 47.2812 37.4727C46.9102 37.8242 46.4004 38 45.752 38H43.4609V32.2402H44.2988V34.1621H45.7402C46.3887 34.1621 46.9004 34.3379 47.2754 34.6895ZM53.9609 32.2402H56.5977C57.125 32.2402 57.5469 32.3828 57.8633 32.668C58.1797 32.9492 58.3379 33.3066 58.3379 33.7402C58.3379 33.9863 58.2773 34.2109 58.1562 34.4141C58.0391 34.6133 57.9199 34.752 57.7988 34.8301L57.6172 34.9414C57.6406 34.9492 57.6738 34.9609 57.7168 34.9766C57.7637 34.9922 57.8418 35.0352 57.9512 35.1055C58.0645 35.1719 58.1621 35.252 58.2441 35.3457C58.3301 35.4355 58.4062 35.5664 58.4727 35.7383C58.543 35.9102 58.5781 36.1035 58.5781 36.3184C58.5781 36.8379 58.416 37.248 58.0918 37.5488C57.7676 37.8496 57.3105 38 56.7207 38H53.9609V32.2402ZM56.7207 35.2988H54.7988V37.2207H56.7207C57.0488 37.2207 57.3008 37.1367 57.4766 36.9688C57.6523 36.8008 57.7402 36.5645 57.7402 36.2598C57.7402 35.9551 57.6523 35.7188 57.4766 35.5508C57.3008 35.3828 57.0488 35.2988 56.7207 35.2988ZM56.5977 34.5781C57.1992 34.5781 57.5 34.3184 57.5 33.7988C57.5 33.2793 57.1992 33.0195 56.5977 33.0195H54.7988V34.5781H56.5977ZM64.5137 32.2402H65.2344V38H64.3906V33.6816L60.9102 38H60.1953V32.2402H61.0332V36.5586L64.5137 32.2402ZM72.4941 37.2207V39.4414H71.6562V38H67.0332V39.4414H66.1953V37.2207H66.6113C66.6348 37.1973 66.6699 37.1582 66.7168 37.1035C66.7676 37.0449 66.8516 36.916 66.9688 36.7168C67.0859 36.5176 67.1895 36.3027 67.2793 36.0723C67.373 35.8379 67.4551 35.5273 67.5254 35.1406C67.5996 34.75 67.6367 34.3438 67.6367 33.9219V32.2402H71.5918V37.2207H72.4941ZM68.4746 33.0195V33.9219C68.4746 34.5781 68.3945 35.1797 68.2344 35.7266C68.0742 36.2734 67.9141 36.6602 67.7539 36.8867L67.5137 37.2207H70.7539V33.0195H68.4746ZM78.9102 35.4336L74.2285 35.4219C74.2598 35.9414 74.4727 36.3906 74.8672 36.7695C75.2656 37.1484 75.7324 37.3379 76.2676 37.3379C76.627 37.3379 76.9609 37.2578 77.2695 37.0977C77.5781 36.9375 77.7969 36.7773 77.9258 36.6172L78.1309 36.3828L78.6699 36.9219C78.6465 36.9531 78.6113 36.998 78.5645 37.0566C78.5215 37.1113 78.4238 37.207 78.2715 37.3438C78.123 37.4766 77.9609 37.5957 77.7852 37.7012C77.6133 37.8027 77.3887 37.8984 77.1113 37.9883C76.8379 38.0742 76.5566 38.1172 76.2676 38.1172C75.4824 38.1172 74.8066 37.8262 74.2402 37.2441C73.6738 36.6582 73.3906 35.9492 73.3906 35.1172C73.3906 34.2852 73.6699 33.5781 74.2285 32.9961C74.791 32.4102 75.4512 32.1172 76.209 32.1172C76.9941 32.1172 77.6504 32.3906 78.1777 32.9375C78.7051 33.4805 78.9688 34.168 78.9688 35L78.9102 35.4336ZM77.498 33.4121C77.1426 33.0723 76.7129 32.9023 76.209 32.9023C75.7051 32.9023 75.2656 33.0801 74.8906 33.4355C74.5156 33.791 74.2949 34.2129 74.2285 34.7012H78.1309C78.0684 34.1816 77.8574 33.752 77.498 33.4121ZM84.4648 36.6992C84.8789 36.2695 85.0859 35.7441 85.0859 35.123C85.0859 34.498 84.8789 33.9727 84.4648 33.5469C84.0547 33.1172 83.5605 32.9023 82.9824 32.9023C82.4082 32.9023 81.9141 33.1172 81.5 33.5469C81.0898 33.9727 80.8848 34.4961 80.8848 35.1172C80.8848 35.7344 81.0898 36.2598 81.5 36.6934C81.9141 37.123 82.4082 37.3379 82.9824 37.3379C83.5605 37.3379 84.0547 37.125 84.4648 36.6992ZM80.9023 37.25C80.332 36.6719 80.0469 35.9629 80.0469 35.123C80.0469 34.2793 80.332 33.5684 80.9023 32.9902C81.4766 32.4082 82.1719 32.1172 82.9883 32.1172C83.8047 32.1172 84.498 32.4082 85.0684 32.9902C85.6387 33.5684 85.9238 34.2793 85.9238 35.123C85.9238 35.9629 85.6387 36.6719 85.0684 37.25C84.498 37.8281 83.8047 38.1172 82.9883 38.1172C82.1719 38.1172 81.4766 37.8281 80.9023 37.25ZM91.5664 38V35.4805H88.2676V38H87.4297V32.2402H88.2676V34.7012H91.5664V32.2402H92.4102V38H91.5664ZM95.5918 34.7012L97.8125 34.3379C97.8125 33.9121 97.6777 33.5664 97.4082 33.3008C97.1387 33.0352 96.793 32.9023 96.3711 32.9023C96.0664 32.9023 95.7793 32.9727 95.5098 33.1133C95.2441 33.25 95.0508 33.3906 94.9297 33.5352L94.748 33.7402L94.209 33.2012C94.2324 33.1699 94.2637 33.1309 94.3027 33.084C94.3457 33.0332 94.4355 32.9473 94.5723 32.8262C94.7129 32.7012 94.8594 32.5898 95.0117 32.4922C95.1641 32.3945 95.3633 32.3086 95.6094 32.2344C95.8594 32.1562 96.1133 32.1172 96.3711 32.1172C97.0273 32.1172 97.5703 32.3301 98 32.7559C98.4336 33.1816 98.6504 33.709 98.6504 34.3379V38H97.8125V37.2207C97.7969 37.2441 97.7715 37.2773 97.7363 37.3203C97.7051 37.3594 97.6309 37.4316 97.5137 37.5371C97.4004 37.6387 97.2773 37.7305 97.1445 37.8125C97.0117 37.8906 96.8359 37.9609 96.6172 38.0234C96.4023 38.0859 96.1797 38.1172 95.9492 38.1172C95.375 38.1172 94.8906 37.9473 94.4961 37.6074C94.1055 37.2676 93.9102 36.8789 93.9102 36.4414C93.9102 35.9609 94.0547 35.5742 94.3438 35.2812C94.6328 34.9844 95.0488 34.791 95.5918 34.7012ZM95.9492 37.3379C96.4922 37.3379 96.9375 37.1602 97.2852 36.8047C97.6367 36.4492 97.8125 35.9883 97.8125 35.4219V35.0586L95.832 35.4219C95.1133 35.5586 94.752 35.8984 94.748 36.4414C94.748 36.6992 94.8535 36.9141 95.0645 37.0859C95.2793 37.2539 95.5742 37.3379 95.9492 37.3379ZM106.021 35.2402C106.021 36.0488 105.748 36.7305 105.201 37.2852C104.654 37.8398 103.988 38.1172 103.203 38.1172C102.355 38.1172 101.664 37.7949 101.129 37.1504C100.594 36.502 100.326 35.5859 100.326 34.4023C100.326 31.7539 101.305 30.2539 103.262 29.9023C103.688 29.832 104.066 29.7402 104.398 29.627C104.73 29.5137 104.953 29.4199 105.066 29.3457L105.242 29.2402L105.664 29.9023C105.344 30.1836 104.584 30.4434 103.385 30.6816C102.752 30.8105 102.24 31.1113 101.85 31.584C101.463 32.0527 101.254 32.6914 101.223 33.5C101.238 33.4688 101.264 33.4277 101.299 33.377C101.338 33.3223 101.418 33.2324 101.539 33.1074C101.664 32.9785 101.801 32.8633 101.949 32.7617C102.098 32.6602 102.289 32.5684 102.523 32.4863C102.762 32.4004 103.008 32.3574 103.262 32.3574C104.023 32.3574 104.674 32.6387 105.213 33.2012C105.752 33.7598 106.021 34.4395 106.021 35.2402ZM101.803 33.7461C101.416 34.1484 101.223 34.6465 101.223 35.2402C101.223 35.834 101.416 36.332 101.803 36.7344C102.193 37.1367 102.66 37.3379 103.203 37.3379C103.746 37.3379 104.211 37.1367 104.598 36.7344C104.988 36.332 105.184 35.834 105.184 35.2402C105.184 34.6465 104.988 34.1484 104.598 33.7461C104.211 33.3438 103.746 33.1426 103.203 33.1426C102.66 33.1426 102.193 33.3438 101.803 33.7461ZM108.184 32.2402H112.385V38H111.541V33.0195H109.021V33.9219C109.021 34.7695 108.979 35.4766 108.893 36.043C108.811 36.6055 108.686 37.0352 108.518 37.332C108.35 37.625 108.164 37.8301 107.961 37.9473C107.758 38.0605 107.512 38.1172 107.223 38.1172C107.125 38.1172 107.025 38.1074 106.924 38.0879C106.826 38.0684 106.754 38.0469 106.707 38.0234L106.625 38V37.1621C106.785 37.2402 106.945 37.2793 107.105 37.2793C107.352 37.2793 107.545 37.209 107.686 37.0684C107.826 36.9277 107.943 36.6035 108.037 36.0957C108.135 35.5879 108.184 34.8633 108.184 33.9219V32.2402ZM121.309 32.9961C121.875 33.5781 122.158 34.2852 122.158 35.1172C122.158 35.9492 121.873 36.6582 121.303 37.2441C120.736 37.8262 120.062 38.1172 119.281 38.1172C118.547 38.1172 117.904 37.8613 117.354 37.3496C116.807 36.8379 116.488 36.2148 116.398 35.4805H115.139V38H114.301V32.2402H115.139V34.7012H116.398C116.496 33.998 116.816 33.3926 117.359 32.8848C117.902 32.373 118.543 32.1172 119.281 32.1172C120.066 32.1172 120.742 32.4102 121.309 32.9961ZM117.84 33.5469C117.438 33.9727 117.236 34.498 117.236 35.123C117.236 35.7441 117.438 36.2695 117.84 36.6992C118.246 37.125 118.725 37.3379 119.275 37.3379C119.83 37.3379 120.309 37.125 120.711 36.6992C121.117 36.2695 121.32 35.7441 121.32 35.123C121.32 34.498 121.117 33.9727 120.711 33.5469C120.309 33.1172 119.83 32.9023 119.275 32.9023C118.725 32.9023 118.246 33.1172 117.84 33.5469ZM129.002 37.2207V39.4414H128.164V38H123.541V39.4414H122.703V37.2207H123.119C123.143 37.1973 123.178 37.1582 123.225 37.1035C123.275 37.0449 123.359 36.916 123.477 36.7168C123.594 36.5176 123.697 36.3027 123.787 36.0723C123.881 35.8379 123.963 35.5273 124.033 35.1406C124.107 34.75 124.145 34.3438 124.145 33.9219V32.2402H128.1V37.2207H129.002ZM124.982 33.0195V33.9219C124.982 34.5781 124.902 35.1797 124.742 35.7266C124.582 36.2734 124.422 36.6602 124.262 36.8867L124.021 37.2207H127.262V33.0195H124.982ZM135.418 35.4336L130.736 35.4219C130.768 35.9414 130.98 36.3906 131.375 36.7695C131.773 37.1484 132.24 37.3379 132.775 37.3379C133.135 37.3379 133.469 37.2578 133.777 37.0977C134.086 36.9375 134.305 36.7773 134.434 36.6172L134.639 36.3828L135.178 36.9219C135.154 36.9531 135.119 36.998 135.072 37.0566C135.029 37.1113 134.932 37.207 134.779 37.3438C134.631 37.4766 134.469 37.5957 134.293 37.7012C134.121 37.8027 133.896 37.8984 133.619 37.9883C133.346 38.0742 133.064 38.1172 132.775 38.1172C131.99 38.1172 131.314 37.8262 130.748 37.2441C130.182 36.6582 129.898 35.9492 129.898 35.1172C129.898 34.2852 130.178 33.5781 130.736 32.9961C131.299 32.4102 131.959 32.1172 132.717 32.1172C133.502 32.1172 134.158 32.3906 134.686 32.9375C135.213 33.4805 135.477 34.168 135.477 35L135.418 35.4336ZM134.006 33.4121C133.65 33.0723 133.221 32.9023 132.717 32.9023C132.213 32.9023 131.773 33.0801 131.398 33.4355C131.023 33.791 130.803 34.2129 130.736 34.7012H134.639C134.576 34.1816 134.365 33.752 134.006 33.4121ZM141.113 38V35.4805H137.814V38H136.977V32.2402H137.814V34.7012H141.113V32.2402H141.957V38H141.113ZM148.197 32.2402H148.918V38H148.074V33.6816L144.594 38H143.879V32.2402H144.717V36.5586L148.197 32.2402ZM150.477 34.1621C150.477 33.6113 150.67 33.1543 151.057 32.791C151.447 32.4238 151.955 32.2402 152.58 32.2402H155.035V38H154.197V36.0781H152.516L151.32 38H150.359L151.678 35.9023C151.646 35.8945 151.602 35.8809 151.543 35.8613C151.488 35.8379 151.393 35.7852 151.256 35.7031C151.119 35.6172 150.998 35.5156 150.893 35.3984C150.791 35.2773 150.695 35.1094 150.605 34.8945C150.52 34.6797 150.477 34.4355 150.477 34.1621ZM154.197 33.0195H152.58C152.197 33.0195 151.891 33.127 151.66 33.3418C151.434 33.5527 151.32 33.8262 151.32 34.1621C151.32 34.498 151.434 34.7715 151.66 34.9824C151.887 35.1934 152.193 35.2988 152.58 35.2988H154.197V33.0195Z" fill="white"/>
</svg>
