<svg width="28" height="26" viewBox="0 0 28 26" fill="none" xmlns="http://www.w3.org/2000/svg">
<path d="M18.7471 16.602L18.8875 17.2139C19.6881 20.7019 18.7142 22.6252 18.0929 23.4468L18.7471 16.602ZM18.7471 16.602H19.3748M18.7471 16.602H19.3748M19.3748 16.602H24.2912C24.7122 16.602 25.5104 16.366 26.2084 15.8934C26.9058 15.4214 27.3682 14.8087 27.3682 14.1235C27.3682 13.8341 27.3509 13.4796 27.2915 13.1403C27.2307 12.7926 27.1332 12.5065 27.0024 12.3196L26.8542 12.1079L26.9412 11.8645C27.2113 11.1087 27.2343 9.95115 26.4767 9.16431L26.3273 9.00922L26.3374 8.79415C26.4108 7.22392 26.0082 6.2302 25.3255 5.71724L25.1302 5.57048L25.1259 5.32619C25.1128 4.57212 24.7545 3.62191 24.2301 3.01966C23.8575 2.59756 23.4918 2.433 23.1723 2.433H12.4075C12.3779 2.433 12.3423 2.43604 12.3008 2.44242V15.8635C13.2377 17.1193 13.9232 18.732 14.6066 20.7043L14.6342 20.7838M19.3748 16.602L14.6342 20.7838M14.6342 20.7838V20.868M14.6342 20.7838V20.868M14.6342 20.868L14.6342 24.0005C14.6342 24.0006 14.6342 24.0006 14.6342 24.0007C14.6343 24.0166 14.6386 24.0322 14.6467 24.0458C14.9036 24.477 15.3511 24.7302 15.9005 24.7302C16.6236 24.7302 17.4574 24.286 18.0929 23.4469L14.6342 20.868ZM2.17817 16.602H8.5855C9.43771 16.602 10.1318 15.9075 10.1318 15.0568V2.81383C10.1318 1.96218 9.4379 1.26867 8.5855 1.26867H2.17817C1.32577 1.26867 0.631836 1.96218 0.631836 2.81383V15.0568C0.631836 15.9085 1.32577 16.602 2.17817 16.602Z" stroke="#DC4F40"/>
</svg>
